<mxfile host="app.diagrams.net" modified="2024-05-05T22:02:43.499Z" agent="Mozilla/5.0 (Windows NT 10.0; Win64; x64) AppleWebKit/537.36 (KHTML, like Gecko) Chrome/124.0.0.0 Safari/537.36" etag="j9-MHKaGlhUK0LdeWnWw" version="24.3.1" type="google">
  <diagram name="Page-1" id="_ZrC7_AyCr-9D5e1H9Fy">
    <mxGraphModel grid="1" page="1" gridSize="10" guides="1" tooltips="1" connect="1" arrows="1" fold="1" pageScale="1" pageWidth="850" pageHeight="1100" math="0" shadow="0">
      <root>
        <mxCell id="0" />
        <mxCell id="1" parent="0" />
        <mxCell id="IURU3j5ebyQQw9xy1G_i-1" value="Actor" style="shape=umlActor;verticalLabelPosition=bottom;verticalAlign=top;html=1;outlineConnect=0;" vertex="1" parent="1">
          <mxGeometry x="-170" y="60" width="30" height="60" as="geometry" />
        </mxCell>
        <mxCell id="IURU3j5ebyQQw9xy1G_i-2" value="" style="edgeStyle=orthogonalEdgeStyle;rounded=0;orthogonalLoop=1;jettySize=auto;html=1;endArrow=none;endFill=0;dashed=1;" edge="1" parent="1" source="IURU3j5ebyQQw9xy1G_i-1" target="IURU3j5ebyQQw9xy1G_i-4">
          <mxGeometry relative="1" as="geometry">
            <mxPoint x="-175" y="701.6000366210938" as="targetPoint" />
            <mxPoint x="-175" y="120" as="sourcePoint" />
          </mxGeometry>
        </mxCell>
        <mxCell id="IURU3j5ebyQQw9xy1G_i-3" style="edgeStyle=orthogonalEdgeStyle;rounded=0;orthogonalLoop=1;jettySize=auto;html=1;exitX=1;exitY=0.25;exitDx=0;exitDy=0;entryX=0;entryY=0.25;entryDx=0;entryDy=0;" edge="1" parent="1" source="IURU3j5ebyQQw9xy1G_i-4" target="IURU3j5ebyQQw9xy1G_i-10">
          <mxGeometry relative="1" as="geometry" />
        </mxCell>
        <mxCell id="IURU3j5ebyQQw9xy1G_i-4" value="" style="rounded=0;whiteSpace=wrap;html=1;" vertex="1" parent="1">
          <mxGeometry x="-160" y="170" width="10" height="60" as="geometry" />
        </mxCell>
        <mxCell id="IURU3j5ebyQQw9xy1G_i-5" style="edgeStyle=orthogonalEdgeStyle;rounded=0;orthogonalLoop=1;jettySize=auto;html=1;exitX=1;exitY=0.25;exitDx=0;exitDy=0;entryX=0;entryY=0.25;entryDx=0;entryDy=0;" edge="1" parent="1" source="IURU3j5ebyQQw9xy1G_i-10" target="IURU3j5ebyQQw9xy1G_i-8">
          <mxGeometry relative="1" as="geometry" />
        </mxCell>
        <mxCell id="IURU3j5ebyQQw9xy1G_i-6" style="edgeStyle=orthogonalEdgeStyle;rounded=0;orthogonalLoop=1;jettySize=auto;html=1;entryX=0.5;entryY=0;entryDx=0;entryDy=0;dashed=1;endArrow=none;endFill=0;" edge="1" parent="1" source="IURU3j5ebyQQw9xy1G_i-7" target="IURU3j5ebyQQw9xy1G_i-10">
          <mxGeometry relative="1" as="geometry" />
        </mxCell>
        <mxCell id="IURU3j5ebyQQw9xy1G_i-7" value="mGUI: MainGUI" style="rounded=0;whiteSpace=wrap;html=1;" vertex="1" parent="1">
          <mxGeometry x="-30" y="60" width="120" height="60" as="geometry" />
        </mxCell>
        <mxCell id="IURU3j5ebyQQw9xy1G_i-8" value="&lt;font style=&quot;font-size: 11px;&quot;&gt;netIncomeTrackerGUI: NetIncomeTrackerGUI&lt;/font&gt;" style="rounded=0;whiteSpace=wrap;html=1;" vertex="1" parent="1">
          <mxGeometry x="160" y="170" width="120" height="60" as="geometry" />
        </mxCell>
        <mxCell id="IURU3j5ebyQQw9xy1G_i-9" style="edgeStyle=orthogonalEdgeStyle;rounded=0;orthogonalLoop=1;jettySize=auto;html=1;exitX=1;exitY=0.75;exitDx=0;exitDy=0;entryX=0;entryY=0.25;entryDx=0;entryDy=0;" edge="1" parent="1" source="IURU3j5ebyQQw9xy1G_i-10" target="IURU3j5ebyQQw9xy1G_i-28">
          <mxGeometry relative="1" as="geometry" />
        </mxCell>
        <mxCell id="zSfBh07-GXkJKnBQOEwd-31" style="edgeStyle=orthogonalEdgeStyle;rounded=0;orthogonalLoop=1;jettySize=auto;html=1;dashed=1;endArrow=none;endFill=0;" edge="1" parent="1" source="IURU3j5ebyQQw9xy1G_i-10">
          <mxGeometry relative="1" as="geometry">
            <mxPoint x="30" y="790" as="targetPoint" />
          </mxGeometry>
        </mxCell>
        <mxCell id="IURU3j5ebyQQw9xy1G_i-10" value="" style="rounded=0;whiteSpace=wrap;html=1;" vertex="1" parent="1">
          <mxGeometry x="25" y="170" width="10" height="100" as="geometry" />
        </mxCell>
        <mxCell id="IURU3j5ebyQQw9xy1G_i-11" value="" style="edgeStyle=orthogonalEdgeStyle;rounded=0;orthogonalLoop=1;jettySize=auto;html=1;dashed=1;endArrow=none;endFill=0;" edge="1" parent="1" source="IURU3j5ebyQQw9xy1G_i-8" target="IURU3j5ebyQQw9xy1G_i-14">
          <mxGeometry relative="1" as="geometry">
            <mxPoint x="220" y="580" as="targetPoint" />
            <mxPoint x="220" y="230" as="sourcePoint" />
          </mxGeometry>
        </mxCell>
        <mxCell id="j6GbsTzSJQFBEa5pTR16-5" style="edgeStyle=orthogonalEdgeStyle;rounded=0;orthogonalLoop=1;jettySize=auto;html=1;exitX=1;exitY=0.25;exitDx=0;exitDy=0;entryX=0;entryY=0.5;entryDx=0;entryDy=0;" edge="1" parent="1" source="IURU3j5ebyQQw9xy1G_i-14" target="j6GbsTzSJQFBEa5pTR16-2">
          <mxGeometry relative="1" as="geometry" />
        </mxCell>
        <mxCell id="IURU3j5ebyQQw9xy1G_i-14" value="" style="rounded=0;whiteSpace=wrap;html=1;" vertex="1" parent="1">
          <mxGeometry x="215" y="280" width="10" height="160" as="geometry" />
        </mxCell>
        <mxCell id="IURU3j5ebyQQw9xy1G_i-15" value="data: Financial Data" style="rounded=0;whiteSpace=wrap;html=1;" vertex="1" parent="1">
          <mxGeometry x="580" y="60" width="120" height="60" as="geometry" />
        </mxCell>
        <mxCell id="IURU3j5ebyQQw9xy1G_i-16" value="" style="edgeStyle=orthogonalEdgeStyle;rounded=0;orthogonalLoop=1;jettySize=auto;html=1;endArrow=none;endFill=0;dashed=1;" edge="1" parent="1" source="IURU3j5ebyQQw9xy1G_i-4" target="IURU3j5ebyQQw9xy1G_i-18">
          <mxGeometry relative="1" as="geometry">
            <mxPoint x="-155" y="691.6000366210938" as="targetPoint" />
            <mxPoint x="-155" y="230" as="sourcePoint" />
          </mxGeometry>
        </mxCell>
        <mxCell id="IURU3j5ebyQQw9xy1G_i-17" style="edgeStyle=orthogonalEdgeStyle;rounded=0;orthogonalLoop=1;jettySize=auto;html=1;exitX=1;exitY=0.25;exitDx=0;exitDy=0;entryX=0;entryY=0.25;entryDx=0;entryDy=0;" edge="1" parent="1" source="IURU3j5ebyQQw9xy1G_i-18" target="IURU3j5ebyQQw9xy1G_i-14">
          <mxGeometry relative="1" as="geometry">
            <Array as="points">
              <mxPoint y="295" />
              <mxPoint y="320" />
            </Array>
          </mxGeometry>
        </mxCell>
        <mxCell id="IURU3j5ebyQQw9xy1G_i-18" value="" style="rounded=0;whiteSpace=wrap;html=1;" vertex="1" parent="1">
          <mxGeometry x="-160" y="280" width="10" height="30" as="geometry" />
        </mxCell>
        <mxCell id="IURU3j5ebyQQw9xy1G_i-19" value="" style="edgeStyle=orthogonalEdgeStyle;rounded=0;orthogonalLoop=1;jettySize=auto;html=1;dashed=1;endArrow=none;endFill=0;" edge="1" parent="1" source="IURU3j5ebyQQw9xy1G_i-15" target="IURU3j5ebyQQw9xy1G_i-21">
          <mxGeometry relative="1" as="geometry">
            <mxPoint x="640" y="580" as="targetPoint" />
            <mxPoint x="640" y="120" as="sourcePoint" />
          </mxGeometry>
        </mxCell>
        <mxCell id="IURU3j5ebyQQw9xy1G_i-21" value="" style="rounded=0;whiteSpace=wrap;html=1;" vertex="1" parent="1">
          <mxGeometry x="635" y="379" width="10" height="60" as="geometry" />
        </mxCell>
        <mxCell id="IURU3j5ebyQQw9xy1G_i-22" value="" style="edgeStyle=orthogonalEdgeStyle;rounded=0;orthogonalLoop=1;jettySize=auto;html=1;endArrow=none;endFill=0;dashed=1;" edge="1" parent="1" source="j6GbsTzSJQFBEa5pTR16-11">
          <mxGeometry relative="1" as="geometry">
            <mxPoint x="-155" y="800" as="targetPoint" />
            <mxPoint x="-155" y="340" as="sourcePoint" />
          </mxGeometry>
        </mxCell>
        <mxCell id="IURU3j5ebyQQw9xy1G_i-26" value="4: editExpenses()" style="text;html=1;align=center;verticalAlign=middle;whiteSpace=wrap;rounded=0;" vertex="1" parent="1">
          <mxGeometry x="35" y="305" width="164.5" height="10" as="geometry" />
        </mxCell>
        <mxCell id="IURU3j5ebyQQw9xy1G_i-27" value="2: new()" style="text;html=1;align=center;verticalAlign=middle;whiteSpace=wrap;rounded=0;" vertex="1" parent="1">
          <mxGeometry x="69" y="170" width="60" height="10" as="geometry" />
        </mxCell>
        <mxCell id="IURU3j5ebyQQw9xy1G_i-28" value="" style="rounded=0;whiteSpace=wrap;html=1;" vertex="1" parent="1">
          <mxGeometry x="215" y="240" width="10" height="20" as="geometry" />
        </mxCell>
        <mxCell id="IURU3j5ebyQQw9xy1G_i-29" value="3: show()" style="text;html=1;align=center;verticalAlign=middle;whiteSpace=wrap;rounded=0;" vertex="1" parent="1">
          <mxGeometry x="29.5" y="250" width="171" height="10" as="geometry" />
        </mxCell>
        <mxCell id="IURU3j5ebyQQw9xy1G_i-40" value="" style="edgeStyle=orthogonalEdgeStyle;rounded=0;orthogonalLoop=1;jettySize=auto;html=1;exitX=0.5;exitY=1;exitDx=0;exitDy=0;dashed=1;endArrow=none;endFill=0;" edge="1" parent="1" source="IURU3j5ebyQQw9xy1G_i-14">
          <mxGeometry relative="1" as="geometry">
            <mxPoint x="220" y="770" as="targetPoint" />
            <mxPoint x="220" y="440" as="sourcePoint" />
          </mxGeometry>
        </mxCell>
        <mxCell id="IURU3j5ebyQQw9xy1G_i-51" value="" style="edgeStyle=orthogonalEdgeStyle;rounded=0;orthogonalLoop=1;jettySize=auto;html=1;dashed=1;endArrow=none;endFill=0;" edge="1" parent="1" source="IURU3j5ebyQQw9xy1G_i-21">
          <mxGeometry relative="1" as="geometry">
            <mxPoint x="640" y="780" as="targetPoint" />
            <mxPoint x="640" y="415" as="sourcePoint" />
          </mxGeometry>
        </mxCell>
        <mxCell id="IURU3j5ebyQQw9xy1G_i-54" value="1: openNetIncomeTrackerGUI()" style="text;html=1;align=center;verticalAlign=middle;whiteSpace=wrap;rounded=0;" vertex="1" parent="1">
          <mxGeometry x="-140" y="160" width="150" height="10" as="geometry" />
        </mxCell>
        <mxCell id="j6GbsTzSJQFBEa5pTR16-2" value="e: editGUI" style="rounded=0;whiteSpace=wrap;html=1;" vertex="1" parent="1">
          <mxGeometry x="450" y="260" width="120" height="60" as="geometry" />
        </mxCell>
        <mxCell id="j6GbsTzSJQFBEa5pTR16-3" value="" style="edgeStyle=orthogonalEdgeStyle;rounded=0;orthogonalLoop=1;jettySize=auto;html=1;exitX=0.5;exitY=1;exitDx=0;exitDy=0;dashed=1;endArrow=none;endFill=0;" edge="1" parent="1" source="j6GbsTzSJQFBEa5pTR16-2" target="j6GbsTzSJQFBEa5pTR16-4">
          <mxGeometry relative="1" as="geometry">
            <mxPoint x="409.909090909091" y="550.9697191642992" as="targetPoint" />
            <mxPoint x="410" y="320" as="sourcePoint" />
          </mxGeometry>
        </mxCell>
        <mxCell id="nG9sBs6VyiBueqIRuZ5H-1" style="edgeStyle=orthogonalEdgeStyle;rounded=0;orthogonalLoop=1;jettySize=auto;html=1;dashed=1;endArrow=none;endFill=0;" edge="1" parent="1" source="j6GbsTzSJQFBEa5pTR16-4">
          <mxGeometry relative="1" as="geometry">
            <mxPoint x="510" y="510" as="targetPoint" />
          </mxGeometry>
        </mxCell>
        <mxCell id="j6GbsTzSJQFBEa5pTR16-4" value="" style="rounded=0;whiteSpace=wrap;html=1;" vertex="1" parent="1">
          <mxGeometry x="505" y="340" width="10" height="90" as="geometry" />
        </mxCell>
        <mxCell id="j6GbsTzSJQFBEa5pTR16-6" value="5: new(Expense)" style="text;html=1;align=center;verticalAlign=middle;whiteSpace=wrap;rounded=0;" vertex="1" parent="1">
          <mxGeometry x="230" y="260" width="210" height="10" as="geometry" />
        </mxCell>
        <mxCell id="j6GbsTzSJQFBEa5pTR16-8" value="7: removeItem(Expense)" style="text;html=1;align=center;verticalAlign=middle;whiteSpace=wrap;rounded=0;" vertex="1" parent="1">
          <mxGeometry x="310" y="370" width="200" height="10" as="geometry" />
        </mxCell>
        <mxCell id="j6GbsTzSJQFBEa5pTR16-9" style="edgeStyle=orthogonalEdgeStyle;rounded=0;orthogonalLoop=1;jettySize=auto;html=1;exitX=1;exitY=0.25;exitDx=0;exitDy=0;entryX=-0.171;entryY=0.135;entryDx=0;entryDy=0;entryPerimeter=0;" edge="1" parent="1">
          <mxGeometry relative="1" as="geometry">
            <mxPoint x="515" y="385.5" as="sourcePoint" />
            <mxPoint x="633.29" y="386.0999999999999" as="targetPoint" />
          </mxGeometry>
        </mxCell>
        <mxCell id="j6GbsTzSJQFBEa5pTR16-12" value="" style="edgeStyle=orthogonalEdgeStyle;rounded=0;orthogonalLoop=1;jettySize=auto;html=1;endArrow=none;endFill=0;dashed=1;" edge="1" parent="1" source="IURU3j5ebyQQw9xy1G_i-18" target="j6GbsTzSJQFBEa5pTR16-11">
          <mxGeometry relative="1" as="geometry">
            <mxPoint x="-155" y="800" as="targetPoint" />
            <mxPoint x="-155" y="310" as="sourcePoint" />
          </mxGeometry>
        </mxCell>
        <mxCell id="2xZHRdMQxUj3LhkfZUAB-3" style="edgeStyle=orthogonalEdgeStyle;rounded=0;orthogonalLoop=1;jettySize=auto;html=1;entryX=0;entryY=0.5;entryDx=0;entryDy=0;" edge="1" parent="1" source="j6GbsTzSJQFBEa5pTR16-11" target="j6GbsTzSJQFBEa5pTR16-4">
          <mxGeometry relative="1" as="geometry" />
        </mxCell>
        <mxCell id="j6GbsTzSJQFBEa5pTR16-11" value="" style="rounded=0;whiteSpace=wrap;html=1;" vertex="1" parent="1">
          <mxGeometry x="-160" y="375" width="10" height="30" as="geometry" />
        </mxCell>
        <mxCell id="j6GbsTzSJQFBEa5pTR16-14" style="edgeStyle=orthogonalEdgeStyle;rounded=0;orthogonalLoop=1;jettySize=auto;html=1;exitX=0.5;exitY=1;exitDx=0;exitDy=0;" edge="1" parent="1" source="j6GbsTzSJQFBEa5pTR16-8" target="j6GbsTzSJQFBEa5pTR16-8">
          <mxGeometry relative="1" as="geometry" />
        </mxCell>
        <mxCell id="j6GbsTzSJQFBEa5pTR16-15" value="9: display updated list" style="text;html=1;align=center;verticalAlign=middle;whiteSpace=wrap;rounded=0;" vertex="1" parent="1">
          <mxGeometry x="270" y="405" width="130" height="10" as="geometry" />
        </mxCell>
        <mxCell id="j6GbsTzSJQFBEa5pTR16-17" value="8: saveAndExit()" style="text;html=1;align=center;verticalAlign=middle;whiteSpace=wrap;rounded=0;" vertex="1" parent="1">
          <mxGeometry x="522.5" y="370" width="100" height="10" as="geometry" />
        </mxCell>
        <mxCell id="j6GbsTzSJQFBEa5pTR16-19" style="edgeStyle=orthogonalEdgeStyle;rounded=0;orthogonalLoop=1;jettySize=auto;html=1;exitX=0;exitY=0.75;exitDx=0;exitDy=0;entryX=1.5;entryY=0.875;entryDx=0;entryDy=0;entryPerimeter=0;dashed=1;" edge="1" parent="1" source="IURU3j5ebyQQw9xy1G_i-21" target="IURU3j5ebyQQw9xy1G_i-14">
          <mxGeometry relative="1" as="geometry" />
        </mxCell>
        <mxCell id="2xZHRdMQxUj3LhkfZUAB-1" style="edgeStyle=orthogonalEdgeStyle;rounded=0;orthogonalLoop=1;jettySize=auto;html=1;entryX=-0.016;entryY=0.078;entryDx=0;entryDy=0;entryPerimeter=0;" edge="1" parent="1" source="IURU3j5ebyQQw9xy1G_i-14" target="j6GbsTzSJQFBEa5pTR16-4">
          <mxGeometry relative="1" as="geometry" />
        </mxCell>
        <mxCell id="2xZHRdMQxUj3LhkfZUAB-2" value="6: show()" style="text;html=1;align=center;verticalAlign=middle;whiteSpace=wrap;rounded=0;" vertex="1" parent="1">
          <mxGeometry x="310" y="330" width="171" height="10" as="geometry" />
        </mxCell>
        <mxCell id="nG9sBs6VyiBueqIRuZ5H-2" value="&lt;b&gt;&lt;font style=&quot;font-size: 24px;&quot;&gt;X&lt;/font&gt;&lt;/b&gt;" style="text;html=1;align=center;verticalAlign=middle;whiteSpace=wrap;rounded=0;" vertex="1" parent="1">
          <mxGeometry x="481" y="500" width="60" height="30" as="geometry" />
        </mxCell>
      </root>
    </mxGraphModel>
  </diagram>
</mxfile>
